<svg width="47" height="33" viewBox="0 0 47 33" fill="none" xmlns="http://www.w3.org/2000/svg">
<path fill-rule="evenodd" clip-rule="evenodd" d="M23.3852 3.74086C24.3024 2.97362 25.3258 2.68171 26.3073 2.7555C27.3542 2.83423 28.3231 3.3262 29.0466 4.04081C29.7702 4.75547 30.2672 5.71135 30.3468 6.74298C30.4271 7.78401 30.0794 8.87434 29.1628 9.83126C29.0789 9.91935 28.9932 10.0063 28.9057 10.0922C24.7481 14.1982 19.2252 14.209 19.1687 14.209C19.1584 14.209 18.4167 14.209 17.2764 14.01C18.3587 19.3928 24.667 20.0532 24.667 20.0532C24.667 20.0532 24.3653 15.1926 31.4008 16.1042C33.4487 16.3618 34.9209 16.3406 35.9849 16.1759C34.8344 15.7918 33.5012 15.1262 32.3309 13.9731L32.3303 13.9725C32.2732 13.9159 32.2169 13.8589 32.1615 13.8015L32.161 13.8011C31.5522 13.1678 31.3211 12.4458 31.3742 11.7563C31.4269 11.0731 31.7567 10.44 32.237 9.96644C32.7172 9.49296 33.3604 9.16685 34.0556 9.11448C34.7072 9.06541 35.3868 9.25852 35.9961 9.76645C36.0616 8.98303 36.403 8.37331 36.8985 7.95414C37.427 7.50707 38.1156 7.28905 38.7957 7.28905C39.4758 7.28905 40.1645 7.50707 40.693 7.95414C41.1885 8.37337 41.5299 8.9832 41.5954 9.76676C42.2043 9.25859 42.8838 9.06525 43.5354 9.11412C44.2305 9.16626 44.8738 9.49212 45.3542 9.96543C45.8346 10.4388 46.1646 11.0719 46.2174 11.7552C46.2707 12.4447 46.0399 13.1669 45.4313 13.8007C45.3756 13.859 45.3187 13.9166 45.2607 13.9735C43.3817 15.8246 41.0829 16.419 39.7944 16.6099C38.8335 17.6816 36.9128 17.7995 34.6877 17.9361C33.7318 17.9948 32.7198 18.0569 31.7035 18.1996C28.2619 18.6699 28.8876 23.6876 29.3451 25.9269H35.8609C35.8609 29.7996 32.7209 32.9391 28.8481 32.9391H22.788C18.9152 32.9391 15.7751 29.7996 15.7751 25.9269H22.7904C22.7942 24.0091 21.962 20.9224 16.3649 21.1152C14.0728 21.2067 12.5557 20.8126 11.5571 20.2007C9.25782 21.8621 6.72487 21.8671 6.69529 21.8671C6.6784 21.8671 3.36309 21.867 0.868836 19.3807L0.86829 19.3801C0.816802 19.3285 0.766088 19.2765 0.716147 19.2242L0.715743 19.2238C0.16699 18.6464 -0.0412431 17.9881 0.00664896 17.3595C0.0541008 16.7366 0.351336 16.1592 0.784158 15.7275C1.21695 15.2958 1.79661 14.9985 2.42316 14.9507C3.0104 14.906 3.62288 15.0821 4.17203 15.5452C4.23108 14.8309 4.53872 14.275 4.98528 13.8928C5.46157 13.4852 6.08224 13.2864 6.69515 13.2864C7.30805 13.2864 7.92872 13.4852 8.40501 13.8928C8.85163 14.275 9.1593 14.831 9.21829 15.5455C9.7671 15.0821 10.3795 14.9058 10.9667 14.9504C11.5932 14.9979 12.1729 15.295 12.6058 15.7266C13.0388 16.1582 13.3362 16.7354 13.3838 17.3584C13.4149 17.7651 13.3389 18.1842 13.1328 18.5859C14.842 19.0377 16.858 18.4703 16.0943 17.3489C15.3596 16.2667 15.2336 14.6894 15.2628 13.5232C13.4591 12.9626 11.3064 11.9436 9.43132 10.0917L9.4304 10.0908C9.34436 10.0052 9.2596 9.91919 9.17614 9.83258L9.17546 9.83187C8.25837 8.87577 7.91036 7.7857 7.9904 6.74469C8.0697 5.71325 8.56645 4.75725 9.2898 4.04234C10.0131 3.32748 10.9818 2.83511 12.029 2.75605C13.0104 2.68196 14.034 2.97351 14.9517 3.74039C15.0504 2.55759 15.5645 1.63703 16.3109 1.00416C17.1068 0.329172 18.1441 0 19.1684 0C20.1928 0 21.23 0.329172 22.026 1.00416C22.7724 1.63711 23.2866 2.55783 23.3852 3.74086Z" fill="#C3E4CD"/>
</svg>
