<svg width="44" height="29" viewBox="0 0 44 29" fill="none" xmlns="http://www.w3.org/2000/svg">
<g clip-path="url(#clip0_1_3)">
<path d="M29.8889 9.06558C29.7188 9.23851 29.4385 9.12011 29.4385 8.87751C29.4385 8.65607 29.4385 8.41187 29.428 8.18133C29.1658 -1.39378 14.8334 -1.39378 14.5712 8.18133C14.5652 8.41187 14.5622 8.64393 14.5622 8.87751C14.5622 9.11174 14.2776 9.231 14.1118 9.06558C13.9491 8.90329 13.7804 8.73797 13.6146 8.58023C6.69848 1.99611 -3.42947 12.2082 3.10858 19.1564C3.26726 19.3242 3.42845 19.4911 3.59215 19.6569C11.4808 27.5993 21.9978 27.6 21.9996 27.6C22.0014 27.6 32.5199 27.5993 40.4086 19.6569C40.5733 19.4921 40.7345 19.3252 40.8921 19.1564C47.4302 12.2007 37.2962 1.99611 30.3861 8.58023C30.2189 8.73797 30.0486 8.90026 29.8889 9.06558Z" fill="#1E1E1E" stroke="#1E1E1E" stroke-width="1.65481" stroke-miterlimit="10"/>
<path fill-rule="evenodd" clip-rule="evenodd" d="M28.0927 16.2621C27.8707 16.2621 27.794 16.5849 27.9355 16.7559C28.1861 17.0586 28.3368 17.448 28.3368 17.8729C28.3368 18.837 27.5605 19.6186 26.6029 19.6186C25.6452 19.6186 24.8689 18.837 24.8689 17.8729C24.8689 17.8213 24.8021 17.7957 24.7719 17.8375C24.4985 18.2156 24.3139 18.6401 24.2381 19.0859C24.1954 19.3369 23.9928 19.5447 23.7382 19.5447H23.5975C23.2651 19.5447 22.9909 19.2734 23.04 18.9447C23.3762 16.6923 25.5812 15.0586 28.0927 15.0586C30.6042 15.0586 32.8092 16.6923 33.1455 18.9447C33.1945 19.2734 32.9204 19.5447 32.588 19.5447C32.2557 19.5447 31.9925 19.2721 31.9203 18.9477C31.5915 17.4712 30.0676 16.2621 28.0927 16.2621ZM12.6951 17.8729C12.6951 17.8049 12.6075 17.7684 12.5663 17.8225C12.274 18.2065 12.0749 18.6414 11.9906 19.0998C11.9409 19.3705 11.7222 19.5955 11.4469 19.5955H11.3435C11.0112 19.5955 10.737 19.3242 10.786 18.9955C11.1221 16.7418 13.3273 15.1094 15.8388 15.1094C18.3503 15.1094 20.5555 16.7418 20.8916 18.9955C20.9406 19.3242 20.6664 19.5955 20.3341 19.5955C20.0018 19.5955 19.7386 19.3229 19.6664 18.9985C19.3379 17.5211 17.814 16.3129 15.8388 16.3129C15.6592 16.3129 15.5934 16.5669 15.7137 16.7004C15.9929 17.0102 16.163 17.4216 16.163 17.8729C16.163 18.837 15.3867 19.6186 14.429 19.6186C13.4714 19.6186 12.6951 18.837 12.6951 17.8729ZM24.8179 21.8928C24.5262 21.7334 24.1632 21.8477 23.9284 22.0828C23.4756 22.536 22.7892 22.8457 21.9948 22.8457C21.1983 22.8457 20.5127 22.5391 20.0609 22.0856C19.8263 21.8502 19.4639 21.7345 19.1717 21.8928C18.8795 22.0511 18.7675 22.4207 18.9769 22.6788C19.6623 23.5234 20.7731 24.0492 21.9948 24.0492C23.2172 24.0492 24.3255 23.5179 25.01 22.6795C25.2202 22.422 25.1095 22.0521 24.8179 21.8928Z" fill="#FFEBB8"/>
</g>
<defs>
<clipPath id="clip0_1_3">
<rect width="44" height="29" fill="white"/>
</clipPath>
</defs>
</svg>
